<svg xmlns="http://www.w3.org/2000/svg" width="840" height="520" viewBox="0 0 840 520">
<style>text { font-family: Arial, sans-serif; }</style>
<text x="420.0" y="40" text-anchor="middle" font-size="22" font-weight="bold">Comparación de H</text>
<rect x="100" y="80" width="680" height="360" fill="#ffffff" stroke="#333333" stroke-width="1" />
<text x="440.0" y="68" text-anchor="middle" font-size="16" font-weight="bold">Valor de H promedio con desviación estándar</text>
<text x="55" y="260.0" transform="rotate(-90 55,260.0)" text-anchor="middle" font-size="14">Valor de H</text>
<line x1="100" y1="440.0" x2="780" y2="440.0" stroke="#dddddd" stroke-dasharray="4 4" />
<text x="90" y="444.0" text-anchor="end" font-size="12">0.00</text>
<line x1="100" y1="368.07870683110247" x2="780" y2="368.07870683110247" stroke="#dddddd" stroke-dasharray="4 4" />
<text x="90" y="372.07870683110247" text-anchor="end" font-size="12">1.90</text>
<line x1="100" y1="296.157413662205" x2="780" y2="296.157413662205" stroke="#dddddd" stroke-dasharray="4 4" />
<text x="90" y="300.157413662205" text-anchor="end" font-size="12">3.80</text>
<line x1="100" y1="223.85758737136587" x2="780" y2="223.85758737136587" stroke="#dddddd" stroke-dasharray="4 4" />
<text x="90" y="227.85758737136587" text-anchor="end" font-size="12">5.71</text>
<line x1="100" y1="151.93629420246833" x2="780" y2="151.93629420246833" stroke="#dddddd" stroke-dasharray="4 4" />
<text x="90" y="155.93629420246833" text-anchor="end" font-size="12">7.61</text>
<line x1="100" y1="80.01500103357085" x2="780" y2="80.01500103357085" stroke="#dddddd" stroke-dasharray="4 4" />
<text x="90" y="84.01500103357085" text-anchor="end" font-size="12">9.51</text>
<text x="213.33333333333331" y="458" text-anchor="middle" font-size="13">n = 4</text>
<rect x="122.66666666666666" y="422.3351209760603" width="45.333333333333336" height="17.664879023939704" fill="#8e24aa" opacity="0.8" stroke="#222222" stroke-width="1" />
<line x1="145.33333333333331" y1="396.54015598122874" x2="145.33333333333331" y2="440.0" stroke="#000000" stroke-width="1.5" />
<line x1="131.73333333333332" y1="396.54015598122874" x2="158.9333333333333" y2="396.54015598122874" stroke="#000000" stroke-width="1.5" />
<line x1="131.73333333333332" y1="440.0" x2="158.9333333333333" y2="440.0" stroke="#000000" stroke-width="1.5" />
<rect x="168.0" y="414.76445853722896" width="45.333333333333336" height="25.23554146277104" fill="#1e88e5" opacity="0.8" stroke="#222222" stroke-width="1" />
<line x1="190.66666666666666" y1="391.8072410033316" x2="190.66666666666666" y2="437.7216760711262" stroke="#000000" stroke-width="1.5" />
<line x1="177.06666666666666" y1="391.8072410033316" x2="204.26666666666665" y2="391.8072410033316" stroke="#000000" stroke-width="1.5" />
<line x1="177.06666666666666" y1="437.7216760711262" x2="204.26666666666665" y2="437.7216760711262" stroke="#000000" stroke-width="1.5" />
<rect x="213.33333333333331" y="389.52891707445787" width="45.333333333333336" height="50.471082925542134" fill="#fdd835" opacity="0.8" stroke="#222222" stroke-width="1" />
<line x1="235.99999999999997" y1="324.85024145116404" x2="235.99999999999997" y2="440.0" stroke="#000000" stroke-width="1.5" />
<line x1="222.39999999999998" y1="324.85024145116404" x2="249.59999999999997" y2="324.85024145116404" stroke="#000000" stroke-width="1.5" />
<line x1="222.39999999999998" y1="440.0" x2="249.59999999999997" y2="440.0" stroke="#000000" stroke-width="1.5" />
<rect x="258.66666666666663" y="428.64400634175297" width="45.333333333333336" height="11.35599365824703" fill="#66bb6a" opacity="0.8" stroke="#222222" stroke-width="1" />
<line x1="281.3333333333333" y1="411.00089550725784" x2="281.3333333333333" y2="440.0" stroke="#000000" stroke-width="1.5" />
<line x1="267.7333333333333" y1="411.00089550725784" x2="294.93333333333334" y2="411.00089550725784" stroke="#000000" stroke-width="1.5" />
<line x1="267.7333333333333" y1="440.0" x2="294.93333333333334" y2="440.0" stroke="#000000" stroke-width="1.5" />
<text x="439.99999999999994" y="458" text-anchor="middle" font-size="13">n = 8</text>
<rect x="349.33333333333326" y="298.6809678084821" width="45.333333333333336" height="141.31903219151792" fill="#8e24aa" opacity="0.8" stroke="#222222" stroke-width="1" />
<line x1="371.99999999999994" y1="272.5057125476774" x2="371.99999999999994" y2="324.8562230692868" stroke="#000000" stroke-width="1.5" />
<line x1="358.3999999999999" y1="272.5057125476774" x2="385.59999999999997" y2="272.5057125476774" stroke="#000000" stroke-width="1.5" />
<line x1="358.3999999999999" y1="324.8562230692868" x2="385.59999999999997" y2="324.8562230692868" stroke="#000000" stroke-width="1.5" />
<rect x="394.6666666666666" y="397.0995795132892" width="45.333333333333336" height="42.9004204867108" fill="#1e88e5" opacity="0.8" stroke="#222222" stroke-width="1" />
<line x1="417.33333333333326" y1="367.7224130753635" x2="417.33333333333326" y2="426.47674595121487" stroke="#000000" stroke-width="1.5" />
<line x1="403.73333333333323" y1="367.7224130753635" x2="430.9333333333333" y2="367.7224130753635" stroke="#000000" stroke-width="1.5" />
<line x1="403.73333333333323" y1="426.47674595121487" x2="430.9333333333333" y2="426.47674595121487" stroke="#000000" stroke-width="1.5" />
<rect x="439.99999999999994" y="167.45615220207256" width="45.333333333333336" height="272.54384779792747" fill="#fdd835" opacity="0.8" stroke="#222222" stroke-width="1" />
<line x1="462.66666666666663" y1="80.0" x2="462.66666666666663" y2="254.91230440414512" stroke="#000000" stroke-width="1.5" />
<line x1="449.0666666666666" y1="80.0" x2="476.26666666666665" y2="80.0" stroke="#000000" stroke-width="1.5" />
<line x1="449.0666666666666" y1="254.91230440414512" x2="476.26666666666665" y2="254.91230440414512" stroke="#000000" stroke-width="1.5" />
<rect x="485.33333333333326" y="357.9844902459941" width="45.333333333333336" height="82.0155097540059" fill="#66bb6a" opacity="0.8" stroke="#222222" stroke-width="1" />
<line x1="507.99999999999994" y1="337.896924903834" x2="507.99999999999994" y2="378.07205558815417" stroke="#000000" stroke-width="1.5" />
<line x1="494.3999999999999" y1="337.896924903834" x2="521.5999999999999" y2="337.896924903834" stroke="#000000" stroke-width="1.5" />
<line x1="494.3999999999999" y1="378.07205558815417" x2="521.5999999999999" y2="378.07205558815417" stroke="#000000" stroke-width="1.5" />
<text x="666.6666666666665" y="458" text-anchor="middle" font-size="13">n = 10</text>
<rect x="575.9999999999999" y="259.565878541187" width="45.333333333333336" height="180.43412145881302" fill="#8e24aa" opacity="0.8" stroke="#222222" stroke-width="1" />
<line x1="598.6666666666665" y1="215.4627691915709" x2="598.6666666666665" y2="303.668987890803" stroke="#000000" stroke-width="1.5" />
<line x1="585.0666666666665" y1="215.4627691915709" x2="612.2666666666665" y2="215.4627691915709" stroke="#000000" stroke-width="1.5" />
<line x1="585.0666666666665" y1="303.668987890803" x2="612.2666666666665" y2="303.668987890803" stroke="#000000" stroke-width="1.5" />
<rect x="621.3333333333333" y="384.4818087819037" width="45.333333333333336" height="55.51819121809632" fill="#1e88e5" opacity="0.8" stroke="#222222" stroke-width="1" />
<line x1="643.9999999999999" y1="358.6868437870722" x2="643.9999999999999" y2="410.2767737767352" stroke="#000000" stroke-width="1.5" />
<line x1="630.3999999999999" y1="358.6868437870722" x2="657.5999999999999" y2="358.6868437870722" stroke="#000000" stroke-width="1.5" />
<line x1="630.3999999999999" y1="410.2767737767352" x2="657.5999999999999" y2="410.2767737767352" stroke="#000000" stroke-width="1.5" />
<rect x="666.6666666666665" y="233.0685600052773" width="45.333333333333336" height="206.9314399947227" fill="#fdd835" opacity="0.8" stroke="#222222" stroke-width="1" />
<line x1="689.3333333333331" y1="167.3290934530671" x2="689.3333333333331" y2="298.80802655748755" stroke="#000000" stroke-width="1.5" />
<line x1="675.7333333333331" y1="167.3290934530671" x2="702.9333333333332" y2="167.3290934530671" stroke="#000000" stroke-width="1.5" />
<line x1="675.7333333333331" y1="298.80802655748755" x2="702.9333333333332" y2="298.80802655748755" stroke="#000000" stroke-width="1.5" />
<rect x="711.9999999999999" y="308.7751843935905" width="45.333333333333336" height="131.2248156064095" fill="#66bb6a" opacity="0.8" stroke="#222222" stroke-width="1" />
<line x1="734.6666666666665" y1="282.980219398759" x2="734.6666666666665" y2="334.570149388422" stroke="#000000" stroke-width="1.5" />
<line x1="721.0666666666665" y1="282.980219398759" x2="748.2666666666665" y2="282.980219398759" stroke="#000000" stroke-width="1.5" />
<line x1="721.0666666666665" y1="334.570149388422" x2="748.2666666666665" y2="334.570149388422" stroke="#000000" stroke-width="1.5" />
<text x="100" y="450" font-size="14" font-weight="bold">Algoritmos</text>
<rect x="100" y="460" width="14" height="14" fill="#8e24aa" stroke="#222" stroke-width="1" />
<text x="120" y="472" font-size="13">GA</text>
<rect x="210" y="460" width="14" height="14" fill="#1e88e5" stroke="#222" stroke-width="1" />
<text x="230" y="472" font-size="13">HC</text>
<rect x="320" y="460" width="14" height="14" fill="#fdd835" stroke="#222" stroke-width="1" />
<text x="340" y="472" font-size="13">SA</text>
<rect x="430" y="460" width="14" height="14" fill="#66bb6a" stroke="#222" stroke-width="1" />
<text x="450" y="472" font-size="13">random</text>
</svg>