<svg xmlns="http://www.w3.org/2000/svg" width="840" height="520" viewBox="0 0 840 520">
<style>text { font-family: Arial, sans-serif; }</style>
<text x="420.0" y="40" text-anchor="middle" font-size="22" font-weight="bold">Tiempo de ejecución</text>
<rect x="100" y="80" width="680" height="360" fill="#ffffff" stroke="#333333" stroke-width="1" />
<text x="440.0" y="68" text-anchor="middle" font-size="16" font-weight="bold">Tiempo (s) promedio con desviación estándar</text>
<text x="55" y="260.0" transform="rotate(-90 55,260.0)" text-anchor="middle" font-size="14">Tiempo (s)</text>
<line x1="100" y1="440.0" x2="780" y2="440.0" stroke="#dddddd" stroke-dasharray="4 4" />
<text x="90" y="444.0" text-anchor="end" font-size="12">0.00</text>
<line x1="100" y1="374.3371744783866" x2="780" y2="374.3371744783866" stroke="#dddddd" stroke-dasharray="4 4" />
<text x="90" y="378.3371744783866" text-anchor="end" font-size="12">0.01</text>
<line x1="100" y1="308.6743489567732" x2="780" y2="308.6743489567732" stroke="#dddddd" stroke-dasharray="4 4" />
<text x="90" y="312.6743489567732" text-anchor="end" font-size="12">0.02</text>
<line x1="100" y1="243.0115234351598" x2="780" y2="243.0115234351598" stroke="#dddddd" stroke-dasharray="4 4" />
<text x="90" y="247.0115234351598" text-anchor="end" font-size="12">0.03</text>
<line x1="100" y1="177.3486979135464" x2="780" y2="177.3486979135464" stroke="#dddddd" stroke-dasharray="4 4" />
<text x="90" y="181.3486979135464" text-anchor="end" font-size="12">0.04</text>
<line x1="100" y1="111.685872391933" x2="780" y2="111.685872391933" stroke="#dddddd" stroke-dasharray="4 4" />
<text x="90" y="115.685872391933" text-anchor="end" font-size="12">0.05</text>
<text x="213.33333333333331" y="458" text-anchor="middle" font-size="13">n = 4</text>
<rect x="122.66666666666666" y="431.0983400370347" width="45.333333333333336" height="8.901659962965311" fill="#8e24aa" opacity="0.8" stroke="#222222" stroke-width="1" />
<line x1="145.33333333333331" y1="425.1698259757241" x2="145.33333333333331" y2="437.02685409834527" stroke="#000000" stroke-width="1.5" />
<line x1="131.73333333333332" y1="425.1698259757241" x2="158.9333333333333" y2="425.1698259757241" stroke="#000000" stroke-width="1.5" />
<line x1="131.73333333333332" y1="437.02685409834527" x2="158.9333333333333" y2="437.02685409834527" stroke="#000000" stroke-width="1.5" />
<rect x="168.0" y="439.6358077004837" width="45.333333333333336" height="0.36419229951627585" fill="#1e88e5" opacity="0.8" stroke="#222222" stroke-width="1" />
<line x1="190.66666666666666" y1="439.4832038449968" x2="190.66666666666666" y2="439.7884115559706" stroke="#000000" stroke-width="1.5" />
<line x1="177.06666666666666" y1="439.4832038449968" x2="204.26666666666665" y2="439.4832038449968" stroke="#000000" stroke-width="1.5" />
<line x1="177.06666666666666" y1="439.7884115559706" x2="204.26666666666665" y2="439.7884115559706" stroke="#000000" stroke-width="1.5" />
<rect x="213.33333333333331" y="436.7589928154671" width="45.333333333333336" height="3.2410071845329185" fill="#fdd835" opacity="0.8" stroke="#222222" stroke-width="1" />
<line x1="235.99999999999997" y1="435.0730754925463" x2="235.99999999999997" y2="438.4449101383878" stroke="#000000" stroke-width="1.5" />
<line x1="222.39999999999998" y1="435.0730754925463" x2="249.59999999999997" y2="435.0730754925463" stroke="#000000" stroke-width="1.5" />
<line x1="222.39999999999998" y1="438.4449101383878" x2="249.59999999999997" y2="438.4449101383878" stroke="#000000" stroke-width="1.5" />
<rect x="258.66666666666663" y="437.74648511036463" width="45.333333333333336" height="2.253514889635369" fill="#66bb6a" opacity="0.8" stroke="#222222" stroke-width="1" />
<line x1="281.3333333333333" y1="436.35771592436225" x2="281.3333333333333" y2="439.13525429636695" stroke="#000000" stroke-width="1.5" />
<line x1="267.7333333333333" y1="436.35771592436225" x2="294.93333333333334" y2="436.35771592436225" stroke="#000000" stroke-width="1.5" />
<line x1="267.7333333333333" y1="439.13525429636695" x2="294.93333333333334" y2="439.13525429636695" stroke="#000000" stroke-width="1.5" />
<text x="439.99999999999994" y="458" text-anchor="middle" font-size="13">n = 8</text>
<rect x="349.33333333333326" y="318.3881871445791" width="45.333333333333336" height="121.61181285542091" fill="#8e24aa" opacity="0.8" stroke="#222222" stroke-width="1" />
<line x1="371.99999999999994" y1="315.3273676022013" x2="371.99999999999994" y2="321.44900668695686" stroke="#000000" stroke-width="1.5" />
<line x1="358.3999999999999" y1="315.3273676022013" x2="385.59999999999997" y2="315.3273676022013" stroke="#000000" stroke-width="1.5" />
<line x1="358.3999999999999" y1="321.44900668695686" x2="385.59999999999997" y2="321.44900668695686" stroke="#000000" stroke-width="1.5" />
<rect x="394.6666666666666" y="436.745329031015" width="45.333333333333336" height="3.2546709689850104" fill="#1e88e5" opacity="0.8" stroke="#222222" stroke-width="1" />
<line x1="417.33333333333326" y1="435.86202715900134" x2="417.33333333333326" y2="437.6286309030285" stroke="#000000" stroke-width="1.5" />
<line x1="403.73333333333323" y1="435.86202715900134" x2="430.9333333333333" y2="435.86202715900134" stroke="#000000" stroke-width="1.5" />
<line x1="403.73333333333323" y1="437.6286309030285" x2="430.9333333333333" y2="437.6286309030285" stroke="#000000" stroke-width="1.5" />
<rect x="439.99999999999994" y="414.57631942694604" width="45.333333333333336" height="25.423680573053957" fill="#fdd835" opacity="0.8" stroke="#222222" stroke-width="1" />
<line x1="462.66666666666663" y1="413.14024568295133" x2="462.66666666666663" y2="416.0123931709408" stroke="#000000" stroke-width="1.5" />
<line x1="449.0666666666666" y1="413.14024568295133" x2="476.26666666666665" y2="413.14024568295133" stroke="#000000" stroke-width="1.5" />
<line x1="449.0666666666666" y1="416.0123931709408" x2="476.26666666666665" y2="416.0123931709408" stroke="#000000" stroke-width="1.5" />
<rect x="485.33333333333326" y="424.9289485664365" width="45.333333333333336" height="15.071051433563525" fill="#66bb6a" opacity="0.8" stroke="#222222" stroke-width="1" />
<line x1="507.99999999999994" y1="423.4268160451711" x2="507.99999999999994" y2="426.43108108770184" stroke="#000000" stroke-width="1.5" />
<line x1="494.3999999999999" y1="423.4268160451711" x2="521.5999999999999" y2="423.4268160451711" stroke="#000000" stroke-width="1.5" />
<line x1="494.3999999999999" y1="426.43108108770184" x2="521.5999999999999" y2="426.43108108770184" stroke="#000000" stroke-width="1.5" />
<text x="666.6666666666665" y="458" text-anchor="middle" font-size="13">n = 10</text>
<rect x="575.9999999999999" y="88.83781001077826" width="45.333333333333336" height="351.16218998922176" fill="#8e24aa" opacity="0.8" stroke="#222222" stroke-width="1" />
<line x1="598.6666666666665" y1="80.0" x2="598.6666666666665" y2="97.67562002155651" stroke="#000000" stroke-width="1.5" />
<line x1="585.0666666666665" y1="80.0" x2="612.2666666666665" y2="80.0" stroke="#000000" stroke-width="1.5" />
<line x1="585.0666666666665" y1="97.67562002155651" x2="612.2666666666665" y2="97.67562002155651" stroke="#000000" stroke-width="1.5" />
<rect x="621.3333333333333" y="431.1967230988882" width="45.333333333333336" height="8.803276901111815" fill="#1e88e5" opacity="0.8" stroke="#222222" stroke-width="1" />
<line x1="643.9999999999999" y1="429.1320763470678" x2="643.9999999999999" y2="433.2613698507086" stroke="#000000" stroke-width="1.5" />
<line x1="630.3999999999999" y1="429.1320763470678" x2="657.5999999999999" y2="429.1320763470678" stroke="#000000" stroke-width="1.5" />
<line x1="630.3999999999999" y1="433.2613698507086" x2="657.5999999999999" y2="433.2613698507086" stroke="#000000" stroke-width="1.5" />
<rect x="666.6666666666665" y="384.89007435850795" width="45.333333333333336" height="55.109925641492055" fill="#fdd835" opacity="0.8" stroke="#222222" stroke-width="1" />
<line x1="689.3333333333331" y1="381.91553943144066" x2="689.3333333333331" y2="387.86460928557506" stroke="#000000" stroke-width="1.5" />
<line x1="675.7333333333331" y1="381.91553943144066" x2="702.9333333333332" y2="381.91553943144066" stroke="#000000" stroke-width="1.5" />
<line x1="675.7333333333331" y1="387.86460928557506" x2="702.9333333333332" y2="387.86460928557506" stroke="#000000" stroke-width="1.5" />
<rect x="711.9999999999999" y="410.12646859693297" width="45.333333333333336" height="29.873531403067034" fill="#66bb6a" opacity="0.8" stroke="#222222" stroke-width="1" />
<line x1="734.6666666666665" y1="407.98886002157724" x2="734.6666666666665" y2="412.26407717228875" stroke="#000000" stroke-width="1.5" />
<line x1="721.0666666666665" y1="407.98886002157724" x2="748.2666666666665" y2="407.98886002157724" stroke="#000000" stroke-width="1.5" />
<line x1="721.0666666666665" y1="412.26407717228875" x2="748.2666666666665" y2="412.26407717228875" stroke="#000000" stroke-width="1.5" />
<text x="100" y="450" font-size="14" font-weight="bold">Algoritmos</text>
<rect x="100" y="460" width="14" height="14" fill="#8e24aa" stroke="#222" stroke-width="1" />
<text x="120" y="472" font-size="13">GA</text>
<rect x="210" y="460" width="14" height="14" fill="#1e88e5" stroke="#222" stroke-width="1" />
<text x="230" y="472" font-size="13">HC</text>
<rect x="320" y="460" width="14" height="14" fill="#fdd835" stroke="#222" stroke-width="1" />
<text x="340" y="472" font-size="13">SA</text>
<rect x="430" y="460" width="14" height="14" fill="#66bb6a" stroke="#222" stroke-width="1" />
<text x="450" y="472" font-size="13">random</text>
</svg>