<svg xmlns="http://www.w3.org/2000/svg" width="820" height="520" viewBox="0 0 820 520">
<style>text { font-family: Arial, sans-serif; }</style>
<text x="410.0" y="36" text-anchor="middle" font-size="22" font-weight="bold">HC — variación de H (n = 4)</text>
<rect x="90" y="70" width="690" height="380" fill="#ffffff" stroke="#333333" stroke-width="1" />
<text x="435.0" y="490" text-anchor="middle" font-size="14">Iteraciones</text>
<text x="40" y="260.0" transform="rotate(-90 40,260.0)" text-anchor="middle" font-size="14">Valor de H</text>
<line x1="90" y1="450.0" x2="780" y2="450.0" stroke="#dddddd" stroke-dasharray="4 4" />
<text x="80" y="455.0" text-anchor="end" font-size="12">1.00</text>
<line x1="90" y1="374.0" x2="780" y2="374.0" stroke="#dddddd" stroke-dasharray="4 4" />
<text x="80" y="379.0" text-anchor="end" font-size="12">1.20</text>
<line x1="90" y1="298.0" x2="780" y2="298.0" stroke="#dddddd" stroke-dasharray="4 4" />
<text x="80" y="303.0" text-anchor="end" font-size="12">1.40</text>
<line x1="90" y1="221.99999999999997" x2="780" y2="221.99999999999997" stroke="#dddddd" stroke-dasharray="4 4" />
<text x="80" y="226.99999999999997" text-anchor="end" font-size="12">1.60</text>
<line x1="90" y1="146.0" x2="780" y2="146.0" stroke="#dddddd" stroke-dasharray="4 4" />
<text x="80" y="151.0" text-anchor="end" font-size="12">1.80</text>
<line x1="90" y1="70.0" x2="780" y2="70.0" stroke="#dddddd" stroke-dasharray="4 4" />
<text x="80" y="75.0" text-anchor="end" font-size="12">2.00</text>
<polyline points="90.0,70.0 780.0,450.0" fill="none" stroke="#1e88e5" stroke-width="2.5" stroke-linejoin="round" stroke-linecap="round" />
<circle cx="90.0" cy="70.0" r="3.5" fill="#1e88e5" />
<text x="90.0" y="62.0" text-anchor="middle" font-size="11">2.00</text>
<circle cx="780.0" cy="450.0" r="3.5" fill="#1e88e5" />
<text x="780.0" y="442.0" text-anchor="middle" font-size="11">1.00</text>
<line x1="90.0" y1="450" x2="90.0" y2="456" stroke="#333333" />
<text x="90.0" y="470" text-anchor="middle" font-size="12">0</text>
<line x1="780.0" y1="450" x2="780.0" y2="456" stroke="#333333" />
<text x="780.0" y="470" text-anchor="middle" font-size="12">1</text>
</svg>